<svg width="852" height="604" viewBox="0 0 852 604" fill="none" xmlns="http://www.w3.org/2000/svg">
<path d="M233.5 138C237.167 117 251.2 75.7 278 78.5C304.8 81.3 340.167 53.6667 354.5 39.5H361C355 29 327.2 9.09999 264 13.5C250 15.9 230.167 16.8333 222 17C208 10.8333 171.4 -6.19888e-06 137 5.99999C94 13.5 100.5 12.5 96.5 3.49999C92.5 -5.50001 99.5 9.99999 86 13.5C72.5 17 67 20.5 63 17C59 13.5 49.5 35 49 39.5C48.5 44 44 75.5 39.5 75.5C35 75.5 20.5 170.5 30 173C32.8758 197.085 34.0825 201.975 34.4184 201.388C34.4458 201.256 34.473 201.127 34.5 201C34.4831 201.186 34.4563 201.322 34.4184 201.388C32.7593 209.361 30.5649 225.245 34.5 228C14.9 248 3.66667 267.667 0.5 275C0.5 317.8 23.1667 354.833 34.5 368L189 201L233.5 138Z" fill="#F8F8F8"/>
<path d="M79.5 42.6381C47 53.1381 45 58.6381 29 62.6381C60.5 62.6381 72.5 31.7572 149.5 41.1976C132.199 38.0675 102.032 35.3586 79.5 42.6381Z" fill="#111010"/>
<path d="M145.972 51.5947C140.163 44.1317 125.433 33.5655 112.987 51.0047C105.835 61.0248 101.788 65.0979 99.6461 66.282C113.911 71.9199 140.484 76.6834 147.573 55.7653L146.341 52.5572L145.972 51.5947Z" fill="#111010"/>
<path d="M356.5 175.5C350.5 171 247 143.5 222 131V144L234 175.5L319 320.5L421.5 576.5C430.5 576.5 453.6 579.2 474 590C494.4 600.8 512.167 603.833 518.5 604C519.667 597.167 522.1 580.4 522.5 568C522.794 558.877 517.027 549.755 513.556 545.321C513.208 545.067 512.856 544.793 512.5 544.5C509.826 541.414 511.129 542.222 513.556 545.321C519.852 549.933 524.763 548.421 526.5 547C526.167 541.167 528.7 524.8 541.5 506C573 506 577.5 495.5 578 494.5C578.4 493.7 566.5 489.5 560.5 487.5C576.833 486.5 608.2 482 603 472C603.8 469.6 596.333 468.333 592.5 468C594.333 468 602.1 466.2 618.5 459C624.5 455 625.667 451 625.5 449.5C627.667 448.167 634.6 443.3 645 434.5C659.4 429.3 677 416.667 684 411C680.167 408.667 674.8 404.2 684 405C695.5 406 844.5 402 843.5 395C842.7 389.4 848.833 386.667 852 386C838.167 385.667 807.2 384.1 794 380.5C782.789 377.443 805.167 374.89 823.397 373.577C810.897 373.932 798.375 372.296 810.5 364C829.5 351 659.5 342 656 338.5C652.5 335 657.5 336 711 320.5C712.2 312.1 693.5 307.333 684 306C686.167 304 689.2 298.7 684 293.5C672 270.3 613 266.5 585 267.5C579.5 267 570.4 265.7 578 264.5C585.6 263.3 570.167 258 561.5 255.5C562 254.667 563.8 252.1 567 248.5C574.2 242.9 523.333 217.833 497 206C497.5 202.167 488.9 192.6 450.5 185C439.5 171.5 362.5 180 356.5 175.5Z" fill="#F8F8F8"/>
<path d="M36.5 335C38 366.5 45 390.5 63 416C81 441.5 82 508 198 570.5C250.4 590.5 339.833 578.833 378 570.5L414 580L454 548.5L397 347L222.5 138.5L36.5 310V335Z" fill="#F8F8F8"/>
</svg>
