<svg width="50" height="72" viewBox="0 0 50 72" fill="none" xmlns="http://www.w3.org/2000/svg">
<path d="M39.796 39.104C41.308 39.104 42.58 39.212 43.612 39.428C44.644 39.644 45.676 40.016 46.708 40.544C46.876 40.64 46.972 40.724 46.996 40.796C47.02 40.868 47.056 41.048 47.104 41.336L47.536 45.62C47.536 45.692 47.464 45.74 47.32 45.764C47.2 45.764 47.128 45.728 47.104 45.656C46 41.648 43.528 39.644 39.688 39.644C37.672 39.644 35.896 40.088 34.36 40.976C32.824 41.864 31.636 43.136 30.796 44.792C29.956 46.424 29.536 48.332 29.536 50.516C29.536 52.604 29.992 54.524 30.904 56.276C31.84 58.004 33.088 59.372 34.648 60.38C36.232 61.388 37.948 61.892 39.796 61.892C41.764 61.892 43.36 61.412 44.584 60.452C45.808 59.492 46.744 58.028 47.392 56.06C47.392 56.012 47.452 55.988 47.572 55.988C47.74 55.988 47.824 56.024 47.824 56.096L47.464 60.056C47.44 60.344 47.404 60.524 47.356 60.596C47.308 60.668 47.212 60.752 47.068 60.848C45.82 61.448 44.644 61.868 43.54 62.108C42.46 62.348 41.212 62.468 39.796 62.468C37.276 62.468 35.02 61.976 33.028 60.992C31.06 59.984 29.524 58.58 28.42 56.78C27.316 54.98 26.764 52.916 26.764 50.588C26.764 48.332 27.328 46.34 28.456 44.612C29.584 42.86 31.132 41.504 33.1 40.544C35.092 39.584 37.324 39.104 39.796 39.104Z" fill="#F5F5F5"/>
<path d="M14.796 10.104C16.308 10.104 17.58 10.212 18.612 10.428C19.644 10.644 20.676 11.016 21.708 11.544C21.876 11.64 21.972 11.724 21.996 11.796C22.02 11.868 22.056 12.048 22.104 12.336L22.536 16.62C22.536 16.692 22.464 16.74 22.32 16.764C22.2 16.764 22.128 16.728 22.104 16.656C21 12.648 18.528 10.644 14.688 10.644C12.672 10.644 10.896 11.088 9.36 11.976C7.824 12.864 6.636 14.136 5.796 15.792C4.956 17.424 4.536 19.332 4.536 21.516C4.536 23.604 4.992 25.524 5.904 27.276C6.84 29.004 8.088 30.372 9.648 31.38C11.232 32.388 12.948 32.892 14.796 32.892C16.764 32.892 18.36 32.412 19.584 31.452C20.808 30.492 21.744 29.028 22.392 27.06C22.392 27.012 22.452 26.988 22.572 26.988C22.74 26.988 22.824 27.024 22.824 27.096L22.464 31.056C22.44 31.344 22.404 31.524 22.356 31.596C22.308 31.668 22.212 31.752 22.068 31.848C20.82 32.448 19.644 32.868 18.54 33.108C17.46 33.348 16.212 33.468 14.796 33.468C12.276 33.468 10.02 32.976 8.028 31.992C6.06 30.984 4.524 29.58 3.42 27.78C2.316 25.98 1.764 23.916 1.764 21.588C1.764 19.332 2.328 17.34 3.456 15.612C4.584 13.86 6.132 12.504 8.1 11.544C10.092 10.584 12.324 10.104 14.796 10.104Z" fill="#F5F5F5"/>
<line x1="6.85858" y1="55.8586" x2="44.8586" y2="17.8586" stroke="#F5F5F5" stroke-width="0.4"/>
</svg>
